HIERARCHY
ROOT Hips
{
	OFFSET 0.000000 8.830580 0.000000
	CHANNELS 6 Xposition Yposition Zposition Zrotation Yrotation Xrotation 
	JOINT Spine
	{
		OFFSET 0.000000 0.010000 0.000000
		CHANNELS 3 Zrotation Yrotation Xrotation
		JOINT Spine1
		{
			OFFSET 0.000000 2.459130 0.000000
			CHANNELS 3 Zrotation Yrotation Xrotation
			JOINT Neck
			{
				OFFSET 0.000000 2.484630 0.000000
				CHANNELS 3 Zrotation Yrotation Xrotation
				JOINT Head_virtual
				{
					OFFSET 0.000000 0.000000 0.000000
					CHANNELS 3 Zrotation Yrotation Xrotation
					JOINT Head
					{
						OFFSET 0.000000 0.927525 0.000000
						CHANNELS 3 Zrotation Yrotation Xrotation
						End Site
						{
							OFFSET 0.000000 0.000000 0.000000
						}
					}
				}
				JOINT LeftUpArm_virtual
				{
					OFFSET 0.000000 0.000000 0.000000
					CHANNELS 3 Zrotation Yrotation Xrotation
					JOINT LeftUpArm
					{
						OFFSET 1.248820 0.000000 0.000000
						CHANNELS 3 Zrotation Yrotation Xrotation
						JOINT LeftForeArm
						{
							OFFSET 2.597580 0.000000 0.000000
							CHANNELS 3 Zrotation Yrotation Xrotation
							JOINT LeftHand
							{
								OFFSET 2.455420 0.000000 0.000000
								CHANNELS 3 Zrotation Yrotation Xrotation
								End Site
								{
									OFFSET 0.000000 0.000000 0.000000
								}
							}
						}
					}
				}
				JOINT RightUpArm_virtual
				{
					OFFSET -0.000000 -0.000000 -0.000000
					CHANNELS 3 Zrotation Yrotation Xrotation
					JOINT RightUpArm
					{
						OFFSET -1.248820 -0.000000 -0.000000
						CHANNELS 3 Zrotation Yrotation Xrotation
						JOINT RightForeArm
						{
							OFFSET -2.597580 -0.000000 -0.000000
							CHANNELS 3 Zrotation Yrotation Xrotation
							JOINT RightHand
							{
								OFFSET -2.455420 -0.000000 -0.000000
								CHANNELS 3 Zrotation Yrotation Xrotation
								End Site
								{
									OFFSET 0.000000 0.000000 0.000000
								}
							}
						}
					}
				}
			}
		}
	}
	JOINT LeftUpLeg
	{
		OFFSET 1.271939 0.000000 0.000000
		CHANNELS 3 Zrotation Yrotation Xrotation
		JOINT LeftLowLeg
		{
			OFFSET 0.000000 -4.342910 0.000000
			CHANNELS 3 Zrotation Yrotation Xrotation
			JOINT LeftFoot
			{
				OFFSET 0.000000 -4.487670 0.000000
				CHANNELS 3 Zrotation Yrotation Xrotation
				JOINT LeftToeBase
				{
					OFFSET 0.000000 0.000000 1.515070
					CHANNELS 3 Zrotation Yrotation Xrotation
					End Site
					{
						OFFSET 0.000000 0.000000 0.000000
					}
				}
			}
		}
	}
	JOINT RightUpLeg
	{
		OFFSET -1.271939 0.000000 0.000000
		CHANNELS 3 Zrotation Yrotation Xrotation
		JOINT RightLowLeg
		{
			OFFSET 0.000000 -4.342910 0.000000
			CHANNELS 3 Zrotation Yrotation Xrotation
			JOINT RightFoot
			{
				OFFSET 0.000000 -4.487670 0.000000
				CHANNELS 3 Zrotation Yrotation Xrotation
				JOINT RightToeBase
				{
					OFFSET 0.000000 0.000000 1.515070
					CHANNELS 3 Zrotation Yrotation Xrotation
					End Site
					{
						OFFSET 0.000000 0.000000 0.000000
					}
				}
			}
		}
	}
}
MOTION
Frames: 10
Frame Time: 0.041667
-12.903406 8.946367 33.907124 178.525795 1.595312 -177.561391 2.643036 1.757557 -19.824218 -7.564214 3.583374 19.641273 0.000000 0.000000 0.000000 13.069869 4.448201 12.818278 -5.831846 -2.885433 -81.192986 -26.214199 1.114550 7.618011 -44.180698 -9.410030 23.680099 0.000000 -21.025499 0.000000 3.889450 16.562901 -10.750600 31.954000 -5.190290 1.276001 47.014198 3.382260 18.799000 0.000000 22.386999 0.000000 2.912980 -9.217220 -14.464600 -3.135050 -5.474234 -1.540226 0.000000 0.000000 13.220600 -9.638563 9.841453 -3.477332 0.000000 0.000000 -22.659140 1.659684 14.045742 -3.524357 0.000000 0.000000 19.353100 29.223552 -8.728204 -13.334015 0.000000 0.000000 -18.562200 
-12.900307 8.946656 33.908441 178.513060 1.620441 -177.602697 2.663677 1.748341 -19.800702 -7.626627 3.521899 19.577880 0.000000 0.000000 0.000000 13.076260 4.499398 13.503964 -5.846133 -3.006078 -81.155548 -26.160801 1.114600 7.647003 -44.131901 -9.384040 24.036600 0.000000 -21.125799 0.000000 4.186190 16.649799 -10.207800 31.987499 -5.297130 1.480988 46.998699 3.628260 18.828300 0.000000 22.443701 0.000000 2.886190 -9.257750 -14.486700 -3.131689 -5.459111 -1.507519 0.000000 0.000000 13.225900 -9.644609 9.847683 -3.459635 0.000000 0.000000 -22.671630 1.676376 14.111439 -3.510193 0.000000 0.000000 19.389500 29.191680 -8.786835 -13.336562 0.000000 0.000000 -18.600960 
-12.897365 8.946781 33.909782 178.500120 1.672678 -177.674785 2.684654 1.746950 -19.723246 -7.678318 3.457398 19.472168 0.000000 0.000000 0.000000 13.048004 4.622675 14.232256 -5.831733 -3.123518 -81.151370 -26.128000 1.131520 7.710999 -44.071301 -9.371060 24.342501 0.000000 -21.208300 0.000000 4.431510 16.549999 -10.215500 31.998501 -5.313590 1.472992 47.009499 3.601520 18.897800 0.000000 22.510099 0.000000 2.853950 -9.280810 -14.543100 -3.132285 -5.377265 -1.434133 0.000000 0.000000 13.215300 -9.623342 9.832133 -3.437751 0.000000 0.000000 -22.669250 1.698585 14.207636 -3.478813 0.000000 0.000000 19.449301 29.219753 -8.805321 -13.362251 0.000000 0.000000 -18.588790 
-12.894821 8.946858 33.912582 178.491252 1.689931 -177.744888 2.703052 1.710698 -19.660323 -7.696182 3.400199 19.456929 0.000000 0.000000 0.000000 13.009969 4.722720 14.793107 -5.875455 -3.221692 -81.140065 -26.096701 1.132660 7.713989 -44.042500 -9.369430 24.561701 0.000000 -21.284800 0.000000 4.737970 16.470400 -9.713450 31.974600 -5.327710 1.248993 47.044701 3.463320 19.090000 0.000000 22.586500 0.000000 2.794520 -9.225270 -14.450300 -3.131022 -5.341623 -1.400433 0.000000 0.000000 13.255800 -9.671144 9.808002 -3.440849 0.000000 0.000000 -22.672150 1.718697 14.255075 -3.463932 0.000000 0.000000 19.524500 29.197972 -8.835452 -13.373083 0.000000 0.000000 -18.590200 
-12.891767 8.947014 33.914957 178.482089 1.724695 -177.797141 2.709198 1.659763 -19.645981 -7.681681 3.363263 19.474993 0.000000 0.000000 0.000000 13.011325 4.735227 15.265503 -5.958202 -3.314994 -81.084688 -26.082100 1.105010 7.747986 -44.002300 -9.346600 24.684999 0.000000 -21.385599 0.000000 4.919240 16.439301 -9.232900 31.941999 -5.323920 1.161011 47.047901 3.463930 19.267099 0.000000 22.669399 0.000000 2.854300 -9.467850 -14.589000 -3.122142 -5.272915 -1.377079 0.000000 0.000000 13.287900 -9.676856 9.773189 -3.427195 0.000000 0.000000 -22.687630 1.736707 14.292595 -3.458441 0.000000 0.000000 19.585199 29.175577 -8.847663 -13.372724 0.000000 0.000000 -18.598930 
-12.888744 8.947184 33.917711 178.484025 1.718060 -177.894458 2.708382 1.573087 -19.593385 -7.629251 3.324484 19.535908 0.000000 0.000000 0.000000 12.917846 4.870846 15.670093 -5.917748 -3.414822 -81.076098 -26.122700 1.113230 7.807007 -43.868801 -9.367520 25.001101 0.000000 -21.570801 0.000000 5.099080 16.430201 -9.316690 31.899099 -5.298780 1.032013 47.052700 3.382700 19.374201 0.000000 22.759300 0.000000 2.848220 -9.494150 -14.507100 -3.103382 -5.249866 -1.323684 0.000000 0.000000 13.340900 -9.684642 9.733413 -3.428512 0.000000 0.000000 -22.675240 1.780239 14.280628 -3.387606 0.000000 0.000000 19.609200 29.146995 -8.874872 -13.362491 0.000000 0.000000 -18.593260 
-12.885929 8.947366 33.920770 178.489135 1.717530 -178.023041 2.725857 1.528458 -19.491615 -7.617232 3.285079 19.592208 0.000000 0.000000 0.000000 12.898592 4.901539 15.964226 -5.943333 -3.483135 -81.061433 -26.098301 1.092170 7.816010 -43.834000 -9.369470 25.237900 0.000000 -21.666401 0.000000 5.213430 16.443001 -9.424360 31.859699 -5.296200 1.029999 47.083500 3.421630 19.402399 0.000000 22.724600 0.000000 2.801970 -9.285770 -14.361200 -3.091999 -5.283182 -1.243654 0.000000 0.000000 13.409700 -9.743233 9.740332 -3.449382 0.000000 0.000000 -22.687970 1.829225 14.237163 -3.282009 0.000000 0.000000 19.618900 29.132397 -8.858367 -13.329067 0.000000 0.000000 -18.612180 
-12.883179 8.947144 33.924733 178.493594 1.761909 -178.119729 2.741628 1.506721 -19.377268 -7.579017 3.264512 19.608119 0.000000 0.000000 0.000000 12.847912 4.939271 16.171706 -5.964070 -3.558135 -81.046431 -26.092800 1.083640 7.734985 -43.820202 -9.326370 25.507401 0.000000 -21.712900 0.000000 5.272330 16.391701 -9.632400 31.839001 -5.357330 1.134003 47.038601 3.605410 19.553600 0.000000 22.701000 0.000000 2.793970 -9.188660 -14.280600 -3.078626 -5.271302 -1.193930 0.000000 0.000000 13.466900 -9.772316 9.751118 -3.472630 0.000000 0.000000 -22.695270 1.864556 14.242961 -3.222630 0.000000 0.000000 19.631201 29.091817 -8.855169 -13.304237 0.000000 0.000000 -18.614160 
-12.880850 8.947003 33.929415 178.496492 1.811884 -178.194964 2.743107 1.474942 -19.281541 -7.491189 3.272972 19.655077 0.000000 0.000000 0.000000 12.782475 4.961629 16.247980 -6.000694 -3.626920 -81.039114 -26.098801 1.053000 7.640991 -43.837299 -9.283480 25.741800 0.000000 -21.748301 0.000000 5.342550 16.404600 -9.811400 31.826599 -5.307970 0.966003 46.957901 3.455220 19.719700 0.000000 22.820900 0.000000 2.804660 -9.343070 -14.257900 -3.071170 -5.276338 -1.174156 0.000000 0.000000 13.532300 -9.808584 9.793948 -3.501493 0.000000 0.000000 -22.688200 1.890054 14.281447 -3.197340 0.000000 0.000000 19.662001 29.057236 -8.864505 -13.288479 0.000000 0.000000 -18.592440 
-12.878429 8.947272 33.934365 178.504429 1.860537 -178.243140 2.742153 1.450694 -19.194692 -7.408208 3.284788 19.685876 0.000000 0.000000 0.000000 12.745062 4.948665 16.242712 -6.004975 -3.683851 -81.084942 -26.111500 1.008580 7.596008 -43.834202 -9.252240 25.960300 0.000000 -21.793600 0.000000 5.361660 16.369801 -9.954610 31.809401 -5.263530 0.958008 46.909698 3.427920 19.712500 0.000000 22.817400 0.000000 2.819500 -9.212990 -14.334500 -3.052471 -5.266959 -1.190718 0.000000 0.000000 13.613100 -9.835934 9.812561 -3.520364 0.000000 0.000000 -22.685350 1.913713 14.292975 -3.194015 0.000000 0.000000 19.675200 29.061001 -8.846662 -13.255315 0.000000 0.000000 -18.595920 
